<svg viewBox="0 0 500 500" fill="none" xmlns="http://www.w3.org/2000/svg">
<rect width="500" height="500" fill="black"/>
<path d="M114.3 294.9C122.5 294.9 128.3 294.1 131.7 292.5C135.1 290.9 136.8 287.8 136.8 283.2C136.8 279.6 134.6 276.5 130.2 273.9C125.8 271.1 119.1 268 110.1 264.6C103.1 262 96.7 259.3 90.9 256.5C85.3 253.7 80.5 250.4 76.5 246.6C72.5 242.6 69.4 237.9 67.2 232.5C65 227.1 63.9 220.6 63.9 213C63.9 198.2 69.4 186.5 80.4 177.9C91.4 169.3 106.5 165 125.7 165C135.3 165 144.5 165.9 153.3 167.7C162.1 169.3 169.1 171.1 174.3 173.1L166.5 207.9C161.3 206.1 155.6 204.5 149.4 203.1C143.4 201.7 136.6 201 129 201C115 201 108 204.9 108 212.7C108 214.5 108.3 216.1 108.9 217.5C109.5 218.9 110.7 220.3 112.5 221.7C114.3 222.9 116.7 224.3 119.7 225.9C122.9 227.3 126.9 228.9 131.7 230.7C141.5 234.3 149.6 237.9 156 241.5C162.4 244.9 167.4 248.7 171 252.9C174.8 256.9 177.4 261.4 178.8 266.4C180.4 271.4 181.2 277.2 181.2 283.8C181.2 299.4 175.3 311.2 163.5 319.2C151.9 327.2 135.4 331.2 114 331.2C100 331.2 88.3 330 78.9 327.6C69.7 325.2 63.3 323.2 59.7 321.6L67.2 285.3C74.8 288.3 82.6 290.7 90.6 292.5C98.6 294.1 106.5 294.9 114.3 294.9ZM301.305 243.3C301.305 228.9 299.405 218.7 295.605 212.7C292.005 206.7 285.705 203.7 276.705 203.7C273.905 203.7 271.005 203.9 268.005 204.3C265.005 204.5 262.105 204.8 259.305 205.2V327H214.605V174.6C218.405 173.6 222.805 172.6 227.805 171.6C233.005 170.4 238.405 169.4 244.005 168.6C249.805 167.6 255.705 166.9 261.705 166.5C267.705 165.9 273.605 165.6 279.405 165.6C290.805 165.6 300.005 167.1 307.005 170.1C314.205 172.9 320.105 176.3 324.705 180.3C331.105 175.7 338.405 172.1 346.605 169.5C355.005 166.9 362.705 165.6 369.705 165.6C382.305 165.6 392.605 167.4 400.605 171C408.805 174.4 415.305 179.3 420.105 185.7C424.905 192.1 428.205 199.7 430.005 208.5C431.805 217.3 432.705 227.1 432.705 237.9V327H388.005V243.3C388.005 228.9 386.105 218.7 382.305 212.7C378.705 206.7 372.405 203.7 363.405 203.7C361.005 203.7 357.605 204.3 353.205 205.5C349.005 206.7 345.505 208.2 342.705 210C344.105 214.6 345.005 219.5 345.405 224.7C345.805 229.7 346.005 235.1 346.005 240.9V327H301.305V243.3Z" fill="white"/>
</svg>
